<svg width="24" height="24" viewBox="0 0 24 24" xmlns="http://www.w3.org/2000/svg">
<path fill-rule="evenodd" clip-rule="evenodd" d="M3.1611 3.86826L3.8682 3.16116C4.06346 2.96589 4.38005 2.96589 4.57531 3.16116L11.9999 10.5858L19.4246 3.16116C19.6198 2.96589 19.9364 2.96589 20.1317 3.16116L20.8388 3.86826C21.034 4.06353 21.034 4.38011 20.8388 4.57537L13.4141 12L20.8388 19.4246C21.034 19.6199 21.034 19.9365 20.8388 20.1317L20.1317 20.8388C19.9364 21.0341 19.6198 21.0341 19.4246 20.8388L11.9999 13.4142L4.57531 20.8388C4.38005 21.0341 4.06346 21.0341 3.8682 20.8388L3.1611 20.1317C2.96583 19.9365 2.96583 19.6199 3.1611 19.4246L10.5857 12L3.1611 4.57537C2.96583 4.38011 2.96583 4.06352 3.1611 3.86826Z" fill="black"/>
</svg>
